<?xml version="1.0" encoding="UTF-8"?>
<svg xmlns="http://www.w3.org/2000/svg" viewBox="0 0 960 660" width="960" height="660"><rect width="960" height="660" fill="#FFFFFF"/><text x="40" y="60" font-family="Arial, Helvetica, sans-serif" font-size="26" font-weight="700" fill="#0B3C5D">Weyland icon set</text><text x="40" y="88" font-family="Arial, Helvetica, sans-serif" font-size="13" fill="#4A5A68">24 × 24 grid · 1.75 px stroke · round caps · Deep Sea #0B3C5D or Teal #1FA2A6 · v1.2</text><rect x="40" y="120" width="200" height="150" rx="10" fill="#EEF3F6"/><g transform="translate(110.0 138) scale(2.5)" fill="none" stroke="#0B3C5D" stroke-width="1.75" stroke-linecap="round" stroke-linejoin="round"><path d="M12 10.5 V22 M8.5 22 H15.5"/><circle cx="12" cy="9" r="1.4"/><path d="M12 7.6 C11.2 5.5 11.4 3.2 12.3 1.8 C13 3.6 12.9 5.8 12 7.6"/><path d="M13.2 9.8 C15.4 10.3 17.3 11.6 18.2 13 C16.3 13.1 14.4 11.9 13.2 9.8"/><path d="M10.8 9.8 C9.4 11.6 7.5 12.8 5.8 13 C6.6 11.3 8.6 10.1 10.8 9.8"/></g><text x="140.0" y="250" text-anchor="middle" font-family="Arial, Helvetica, sans-serif" font-size="13" fill="#4A5A68">Onshore wind</text><rect x="260" y="120" width="200" height="150" rx="10" fill="#EEF3F6"/><g transform="translate(330.0 138) scale(2.5)" fill="none" stroke="#1FA2A6" stroke-width="1.75" stroke-linecap="round" stroke-linejoin="round"><path d="M12 9 V17"/><circle cx="12" cy="7.5" r="1.2"/><path d="M12 6.3 V2.5 M13.1 8.1 L16.3 10 M10.9 8.1 L7.7 10"/><path d="M2 18.5 q2.5 -2 5 0 t5 0 t5 0 t5 0 M2 22 q2.5 -2 5 0 t5 0 t5 0 t5 0"/></g><text x="360.0" y="250" text-anchor="middle" font-family="Arial, Helvetica, sans-serif" font-size="13" fill="#4A5A68">Offshore wind</text><rect x="480" y="120" width="200" height="150" rx="10" fill="#EEF3F6"/><g transform="translate(550.0 138) scale(2.5)" fill="none" stroke="#0B3C5D" stroke-width="1.75" stroke-linecap="round" stroke-linejoin="round"><path d="M5 4 H21 L19 14 H3 Z"/><path d="M4 9 H20 M10.3 4 L9.6 14 M15.7 4 L14.4 14"/><path d="M11 14 V20 M7 20.5 H15"/></g><text x="580.0" y="250" text-anchor="middle" font-family="Arial, Helvetica, sans-serif" font-size="13" fill="#4A5A68">Solar</text><rect x="700" y="120" width="200" height="150" rx="10" fill="#EEF3F6"/><g transform="translate(770.0 138) scale(2.5)" fill="none" stroke="#0B3C5D" stroke-width="1.75" stroke-linecap="round" stroke-linejoin="round"><rect x="2.5" y="7" width="17" height="10" rx="2"/><path d="M19.5 10.5 H21.5 V13.5 H19.5"/><path d="M12 8.8 L8.6 12.6 H11.6 L10.6 15.4 L14.2 11.4 H11.2 Z"/></g><text x="800.0" y="250" text-anchor="middle" font-family="Arial, Helvetica, sans-serif" font-size="13" fill="#4A5A68">Battery storage</text><rect x="40" y="290" width="200" height="150" rx="10" fill="#EEF3F6"/><g transform="translate(110.0 308) scale(2.5)" fill="none" stroke="#1FA2A6" stroke-width="1.75" stroke-linecap="round" stroke-linejoin="round"><path d="M9 22 L11 3 H13 L15 22"/><path d="M5 7 H19 M6.5 12 H17.5 M10.4 8.5 L14 12 M13.6 8.5 L10 12 M9.7 15 L14.6 19 M14.3 15 L9.4 19"/><path d="M5 7 V8.5 M19 7 V8.5 M6.5 12 V13.5 M17.5 12 V13.5"/></g><text x="140.0" y="420" text-anchor="middle" font-family="Arial, Helvetica, sans-serif" font-size="13" fill="#4A5A68">Grid</text><rect x="260" y="290" width="200" height="150" rx="10" fill="#EEF3F6"/><g transform="translate(330.0 308) scale(2.5)" fill="none" stroke="#0B3C5D" stroke-width="1.75" stroke-linecap="round" stroke-linejoin="round"><circle cx="7" cy="14" r="3.6"/><circle cx="17" cy="14" r="3.6"/><path d="M10.6 14 H13.4"/><path d="M12 2.5 C12 2.5 15 6 15 8 A3 3 0 0 1 9 8 C9 6 12 2.5 12 2.5 Z"/></g><text x="360.0" y="420" text-anchor="middle" font-family="Arial, Helvetica, sans-serif" font-size="13" fill="#4A5A68">Hydrogen</text><rect x="480" y="290" width="200" height="150" rx="10" fill="#EEF3F6"/><g transform="translate(550.0 308) scale(2.5)" fill="none" stroke="#0B3C5D" stroke-width="1.75" stroke-linecap="round" stroke-linejoin="round"><path d="M5 19 C5 10 11 4.5 20 4 C20 13 14.5 19 5 19 Z"/><path d="M5 19 L13.5 10.5"/></g><text x="580.0" y="420" text-anchor="middle" font-family="Arial, Helvetica, sans-serif" font-size="13" fill="#4A5A68">Nature &amp; biodiversity</text><rect x="700" y="290" width="200" height="150" rx="10" fill="#EEF3F6"/><g transform="translate(770.0 308) scale(2.5)" fill="none" stroke="#1FA2A6" stroke-width="1.75" stroke-linecap="round" stroke-linejoin="round"><circle cx="12" cy="7" r="2.6"/><circle cx="5.5" cy="9.5" r="2"/><circle cx="18.5" cy="9.5" r="2"/><path d="M7 20 V17 C7 14.5 9.2 12.7 12 12.7 C14.8 12.7 17 14.5 17 17 V20"/><path d="M2 19 V17.5 C2 15.6 3.5 14.2 5.5 14.2 M22 19 V17.5 C22 15.6 20.5 14.2 18.5 14.2"/></g><text x="800.0" y="420" text-anchor="middle" font-family="Arial, Helvetica, sans-serif" font-size="13" fill="#4A5A68">Community</text><rect x="40" y="460" width="200" height="150" rx="10" fill="#EEF3F6"/><g transform="translate(110.0 478) scale(2.5)" fill="none" stroke="#0B3C5D" stroke-width="1.75" stroke-linecap="round" stroke-linejoin="round"><path d="M4.5 16 A7.5 7.5 0 0 1 19.5 16"/><path d="M2.5 16.5 H21.5 V18.5 H2.5 Z"/><path d="M10.5 8.6 V12.5 M13.5 8.6 V12.5"/></g><text x="140.0" y="590" text-anchor="middle" font-family="Arial, Helvetica, sans-serif" font-size="13" fill="#4A5A68">Health &amp; safety</text><rect x="260" y="460" width="200" height="150" rx="10" fill="#EEF3F6"/><g transform="translate(330.0 478) scale(2.5)" fill="none" stroke="#0B3C5D" stroke-width="1.75" stroke-linecap="round" stroke-linejoin="round"><path d="M12 22 C12 22 19 15.5 19 10 A7 7 0 0 0 5 10 C5 15.5 12 22 12 22 Z"/><circle cx="12" cy="10" r="2.6"/></g><text x="360.0" y="590" text-anchor="middle" font-family="Arial, Helvetica, sans-serif" font-size="13" fill="#4A5A68">Site / location</text><rect x="480" y="460" width="200" height="150" rx="10" fill="#EEF3F6"/><g transform="translate(550.0 478) scale(2.5)" fill="none" stroke="#1FA2A6" stroke-width="1.75" stroke-linecap="round" stroke-linejoin="round"><path d="M7 17 H17.5 A4 4 0 0 0 17.2 9 A5.5 5.5 0 0 0 6.6 10.4 A3.3 3.3 0 0 0 7 17 Z"/><path d="M12 11 V20 M9.5 17.5 L12 20 L14.5 17.5"/></g><text x="580.0" y="590" text-anchor="middle" font-family="Arial, Helvetica, sans-serif" font-size="13" fill="#4A5A68">CO₂ reduction</text><rect x="700" y="460" width="200" height="150" rx="10" fill="#EEF3F6"/><g transform="translate(770.0 478) scale(2.5)" fill="none" stroke="#0B3C5D" stroke-width="1.75" stroke-linecap="round" stroke-linejoin="round"><path d="M6.5 12 A5.5 5.5 0 0 1 17.5 12"/><path d="M12 3 V4.5 M5 6 L6 7 M19 6 L18 7 M2.5 12 H4 M20 12 H21.5"/><path d="M2.5 16 q2.4 -2 4.75 0 t4.75 0 t4.75 0 t4.75 0 M2.5 20 q2.4 -2 4.75 0 t4.75 0 t4.75 0 t4.75 0"/></g><text x="800.0" y="590" text-anchor="middle" font-family="Arial, Helvetica, sans-serif" font-size="13" fill="#4A5A68">Weyland (pictogram)</text></svg>
